<svg xmlns:xlink="http://www.w3.org/1999/xlink" xmlns="http://www.w3.org/2000/svg" width="152" height="44" viewBox="0 0 152 44" fill="none">
<path d="M151.156 38.9258C151.156 41.2706 149.221 43.1699 146.827 43.1699H5.17853C2.78628 43.1699 0.844482 41.2706 0.844482 38.9258V5.08002C0.844482 2.73631 2.78628 0.830322 5.17853 0.830322H146.826C149.221 0.830322 151.154 2.73631 151.154 5.08002L151.156 38.9258Z" fill="black"/>
<path d="M146.37 0.881381C148.977 0.881381 151.098 2.9535 151.098 5.50001V38.5C151.098 41.0465 148.977 43.1186 146.37 43.1186H5.62963C3.02311 43.1186 0.902148 41.0465 0.902148 38.5V5.50001C0.902148 2.9535 3.02311 0.881381 5.62963 0.881381H146.37ZM146.37 7.04954e-06H5.62963C2.53474 7.04954e-06 0 2.47638 0 5.50001V38.5C0 41.5236 2.53474 44 5.62963 44H146.37C149.465 44 152 41.5236 152 38.5V5.50001C152 2.47638 149.465 7.04954e-06 146.37 7.04954e-06Z" fill="#A6A6A6"/>
<path d="M33.922 21.7624C33.8893 18.2171 36.8933 16.4923 37.0307 16.412C35.3294 13.9887 32.6925 13.6576 31.7658 13.6312C29.5511 13.4035 27.4029 14.9259 26.2747 14.9259C25.124 14.9259 23.3867 13.6532 21.5143 13.6906C19.1048 13.7269 16.8507 15.0898 15.6144 17.2062C13.0631 21.5215 14.9659 27.863 17.4103 31.3511C18.633 33.0594 20.0618 34.9668 21.932 34.8997C23.7616 34.826 24.4451 33.7601 26.653 33.7601C28.8407 33.7601 29.4825 34.8997 31.3898 34.8568C33.3534 34.826 34.5897 33.1408 35.7696 31.4171C37.1827 29.4591 37.7501 27.5308 37.7727 27.4318C37.7265 27.4164 33.9592 26.0117 33.922 21.7624Z" fill="white"/>
<path d="M30.319 11.3366C31.3031 10.1343 31.9764 8.49864 31.7895 6.83875C30.3652 6.90035 28.584 7.80125 27.5583 8.97715C26.6508 10.0133 25.8401 11.7117 26.0495 13.3089C27.6495 13.4255 29.2922 12.5202 30.319 11.3366Z" fill="white"/>
<path d="M60.4002 34.6556H57.8432L56.4426 30.3557H51.5741L50.2398 34.6556H47.7504L52.5739 20.0168H55.5531L60.4002 34.6556ZM56.0204 28.5517L54.7537 24.7292C54.6197 24.3387 54.3686 23.4191 53.9982 21.9715H53.9531C53.8057 22.5941 53.5681 23.5137 53.2416 24.7292L51.9974 28.5517H56.0204Z" fill="white"/>
<path d="M72.8046 29.2471C72.8046 31.0423 72.3081 32.4613 71.315 33.503C70.4256 34.4303 69.321 34.8934 68.0026 34.8934C66.5794 34.8934 65.5571 34.394 64.9344 33.3952H64.8894V38.9557H62.4889V27.574C62.4889 26.4454 62.4585 25.2871 62.4 24.0991H64.5111L64.6451 25.7722H64.6901C65.4906 24.5116 66.7055 23.8824 68.3358 23.8824C69.6104 23.8824 70.6744 24.3741 71.5256 25.3586C72.379 26.3442 72.8046 27.64 72.8046 29.2471ZM70.3591 29.3329C70.3591 28.3055 70.1227 27.4585 69.6475 26.7919C69.1285 26.0967 68.4315 25.7491 67.5578 25.7491C66.9656 25.7491 66.4274 25.9427 65.9466 26.3244C65.4647 26.7094 65.1495 27.2121 65.002 27.8347C64.9277 28.1251 64.8905 28.3627 64.8905 28.5497V30.3097C64.8905 31.0775 65.1315 31.7254 65.6134 32.2545C66.0953 32.7836 66.7213 33.0476 67.4914 33.0476C68.3955 33.0476 69.0992 32.7066 69.6025 32.0268C70.1069 31.3459 70.3591 30.4483 70.3591 29.3329Z" fill="white"/>
<path d="M85.2314 29.2471C85.2314 31.0423 84.7348 32.4613 83.7407 33.503C82.8523 34.4303 81.7478 34.8934 80.4293 34.8934C79.0061 34.8934 77.9838 34.394 77.3623 33.3952H77.3172V38.9557H74.9168V27.574C74.9168 26.4454 74.8864 25.2871 74.8278 24.0991H76.9389L77.0729 25.7722H77.1179C77.9174 24.5116 79.1322 23.8824 80.7637 23.8824C82.0371 23.8824 83.1011 24.3741 83.9546 25.3586C84.8047 26.3442 85.2314 27.64 85.2314 29.2471ZM82.7859 29.3329C82.7859 28.3055 82.5483 27.4585 82.0732 26.7919C81.5541 26.0967 80.8594 25.7491 79.9846 25.7491C79.3912 25.7491 78.8541 25.9427 78.3722 26.3244C77.8903 26.7094 77.5762 27.2121 77.4287 27.8347C77.3555 28.1251 77.3172 28.3627 77.3172 28.5497V30.3097C77.3172 31.0775 77.5582 31.7254 78.0378 32.2545C78.5197 32.7825 79.1458 33.0476 79.9181 33.0476C80.8223 33.0476 81.526 32.7066 82.0292 32.0268C82.5337 31.3459 82.7859 30.4483 82.7859 29.3329Z" fill="white"/>
<path d="M99.1254 30.5495C99.1254 31.7947 98.6829 32.8078 97.7946 33.5899C96.8184 34.4446 95.4594 34.8714 93.7131 34.8714C92.1008 34.8714 90.8082 34.5678 89.8298 33.9595L90.386 32.0048C91.4399 32.6274 92.5962 32.9398 93.8561 32.9398C94.7602 32.9398 95.4639 32.7396 95.9694 32.3414C96.4727 31.9432 96.7238 31.4086 96.7238 30.742C96.7238 30.148 96.5166 29.6475 96.1012 29.2416C95.688 28.8357 94.9978 28.4584 94.034 28.1097C91.4106 27.1538 90.1 25.7535 90.1 23.9121C90.1 22.7087 90.5594 21.722 91.4793 20.9542C92.3958 20.1853 93.6185 19.8014 95.1475 19.8014C96.511 19.8014 97.6437 20.0335 98.5478 20.4966L97.9477 22.4084C97.1033 21.9596 96.1485 21.7352 95.08 21.7352C94.2355 21.7352 93.5757 21.9387 93.1028 22.3435C92.7031 22.7054 92.5027 23.1465 92.5027 23.669C92.5027 24.2476 92.7313 24.7261 93.1907 25.1023C93.5904 25.4499 94.3166 25.8261 95.3705 26.232C96.6596 26.7391 97.6065 27.332 98.2157 28.0118C98.8225 28.6894 99.1254 29.5375 99.1254 30.5495Z" fill="white"/>
<path d="M107.062 25.859H104.416V30.9839C104.416 32.2874 104.882 32.9386 105.817 32.9386C106.246 32.9386 106.601 32.9023 106.883 32.8297L106.949 34.6106C106.476 34.7833 105.854 34.8702 105.083 34.8702C104.135 34.8702 103.394 34.5875 102.859 34.0232C102.326 33.4578 102.058 32.5096 102.058 31.1775V25.8568H100.482V24.0968H102.058V22.1641L104.416 21.4689V24.0968H107.062V25.859Z" fill="white"/>
<path d="M119 29.2898C119 30.9123 118.525 32.2444 117.577 33.2861C116.583 34.3586 115.263 34.8932 113.618 34.8932C112.033 34.8932 110.771 34.3795 109.829 33.3521C108.888 32.3247 108.418 31.0278 108.418 29.4647C108.418 27.829 108.902 26.4892 109.873 25.4475C110.843 24.4047 112.151 23.8833 113.796 23.8833C115.381 23.8833 116.657 24.397 117.62 25.4255C118.541 26.4232 119 27.7113 119 29.2898ZM116.51 29.3657C116.51 28.3922 116.297 27.5573 115.866 26.861C115.362 26.0184 114.643 25.5982 113.711 25.5982C112.746 25.5982 112.013 26.0195 111.509 26.861C111.078 27.5584 110.865 28.4065 110.865 29.4097C110.865 30.3832 111.078 31.2181 111.509 31.9133C112.028 32.7559 112.753 33.1761 113.689 33.1761C114.606 33.1761 115.325 32.7471 115.844 31.8913C116.287 31.1818 116.51 30.3381 116.51 29.3657Z" fill="white"/>
<path d="M126.803 26.1616C126.565 26.1187 126.312 26.0967 126.046 26.0967C125.202 26.0967 124.549 26.408 124.089 27.0317C123.69 27.5817 123.489 28.2769 123.489 29.1162V34.6547H121.09L121.112 27.4233C121.112 26.2067 121.082 25.099 121.022 24.1002H123.113L123.201 26.1198H123.267C123.521 25.4257 123.92 24.8669 124.468 24.4478C125.003 24.0705 125.58 23.8824 126.203 23.8824C126.425 23.8824 126.625 23.8978 126.803 23.9253V26.1616Z" fill="white"/>
<path d="M137.538 28.8773C137.538 29.2975 137.51 29.6517 137.451 29.941H130.249C130.277 30.9838 130.625 31.7813 131.294 32.3313C131.901 32.823 132.686 33.0694 133.65 33.0694C134.716 33.0694 135.689 32.9033 136.563 32.57L136.939 34.198C135.917 34.6336 134.71 34.8503 133.317 34.8503C131.642 34.8503 130.327 34.3685 129.37 33.406C128.415 32.4435 127.937 31.151 127.937 29.5296C127.937 27.9379 128.381 26.6124 129.272 25.5553C130.204 24.4267 131.464 23.8624 133.049 23.8624C134.607 23.8624 135.785 24.4267 136.586 25.5553C137.22 26.4518 137.538 27.5606 137.538 28.8773ZM135.249 28.269C135.265 27.5738 135.109 26.9732 134.783 26.4661C134.368 25.8138 133.729 25.4882 132.87 25.4882C132.086 25.4882 131.447 25.8061 130.96 26.4441C130.56 26.9512 130.322 27.5595 130.249 28.2679H135.249V28.269Z" fill="white"/>
<path d="M55.2266 11.0111C55.2266 12.3058 54.8291 13.2804 54.0353 13.9349C53.3001 14.5388 52.2553 14.8413 50.9019 14.8413C50.2308 14.8413 49.6566 14.8127 49.1758 14.7555V7.6814C49.803 7.5824 50.4785 7.5318 51.2081 7.5318C52.4973 7.5318 53.469 7.8057 54.1243 8.3535C54.8584 8.9728 55.2266 9.8583 55.2266 11.0111ZM53.9824 11.043C53.9824 10.2037 53.755 9.5602 53.3001 9.1114C52.8452 8.6637 52.1809 8.4393 51.3061 8.4393C50.9345 8.4393 50.6182 8.4635 50.3558 8.5141V13.892C50.5011 13.914 50.7668 13.9239 51.153 13.9239C52.056 13.9239 52.7529 13.6786 53.2438 13.188C53.7347 12.6974 53.9824 11.9824 53.9824 11.043Z" fill="white"/>
<path d="M61.8233 12.1406C61.8233 12.9381 61.5903 13.5915 61.1241 14.1041C60.6355 14.631 59.9881 14.8939 59.1797 14.8939C58.4005 14.8939 57.7801 14.642 57.3174 14.136C56.8558 13.6311 56.6249 12.9942 56.6249 12.2264C56.6249 11.4234 56.8625 10.7645 57.3399 10.253C57.8173 9.74153 58.4591 9.48523 59.2675 9.48523C60.0466 9.48523 60.6726 9.73713 61.1467 10.242C61.597 10.7326 61.8233 11.3662 61.8233 12.1406ZM60.5995 12.178C60.5995 11.6995 60.4936 11.2892 60.2831 10.9471C60.0354 10.5335 59.683 10.3267 59.2247 10.3267C58.7507 10.3267 58.3904 10.5335 58.1427 10.9471C57.931 11.2892 57.8263 11.7061 57.8263 12.1989C57.8263 12.6774 57.9321 13.0877 58.1427 13.4298C58.3983 13.8434 58.7541 14.0502 59.2134 14.0502C59.6638 14.0502 60.0174 13.8401 60.2718 13.4188C60.4902 13.0701 60.5995 12.6565 60.5995 12.178Z" fill="white"/>
<path d="M70.6687 9.591L69.008 14.7764H67.9271L67.2391 12.5247C67.0646 11.9626 66.9228 11.4038 66.8124 10.8494H66.791C66.6886 11.4192 66.5467 11.9769 66.3643 12.5247L65.6336 14.7764H64.5403L62.9786 9.591H64.1913L64.7914 12.0561C64.9366 12.6391 65.056 13.1946 65.1517 13.7204H65.1731C65.2609 13.287 65.4061 12.7348 65.611 12.0671L66.3643 9.5921H67.3258L68.0476 12.0143C68.2221 12.605 68.3639 13.1737 68.4732 13.7215H68.5058C68.5857 13.188 68.7062 12.6193 68.8661 12.0143L69.5101 9.5921H70.6687V9.591Z" fill="white"/>
<path d="M76.7859 14.7762H75.6059V11.8062C75.6059 10.891 75.2501 10.4334 74.5363 10.4334C74.1861 10.4334 73.9035 10.5588 73.6839 10.8107C73.4666 11.0626 73.3563 11.3596 73.3563 11.6995V14.7751H72.1763V11.0725C72.1763 10.6171 72.1617 10.1232 72.1335 9.58863H73.1705L73.2257 10.3993H73.2583C73.3957 10.1474 73.6006 9.93953 73.8697 9.77343C74.1895 9.57983 74.5475 9.48193 74.9393 9.48193C75.4347 9.48193 75.8468 9.63813 76.1745 9.95163C76.5821 10.3355 76.7859 10.9086 76.7859 11.6698V14.7762Z" fill="white"/>
<path d="M80.0398 14.7762H78.861V7.21155H80.0398V14.7762Z" fill="white"/>
<path d="M86.9867 12.1406C86.9867 12.9381 86.7536 13.5915 86.2875 14.1041C85.7988 14.631 85.1503 14.8939 84.343 14.8939C83.5627 14.8939 82.9423 14.642 82.4807 14.136C82.0191 13.6311 81.7883 12.9942 81.7883 12.2264C81.7883 11.4234 82.0258 10.7645 82.5032 10.253C82.9806 9.74153 83.6224 9.48523 84.4297 9.48523C85.21 9.48523 85.8348 9.73713 86.31 10.242C86.7604 10.7326 86.9867 11.3662 86.9867 12.1406ZM85.7617 12.178C85.7617 11.6995 85.6558 11.2892 85.4453 10.9471C85.1987 10.5335 84.8452 10.3267 84.388 10.3267C83.9129 10.3267 83.5526 10.5335 83.306 10.9471C83.0943 11.2892 82.9896 11.7061 82.9896 12.1989C82.9896 12.6774 83.0955 13.0877 83.306 13.4298C83.5616 13.8434 83.9174 14.0502 84.3768 14.0502C84.8271 14.0502 85.1796 13.8401 85.434 13.4188C85.6536 13.0701 85.7617 12.6565 85.7617 12.178Z" fill="white"/>
<path d="M92.6975 14.7762H91.638L91.5502 14.1789H91.5175C91.155 14.6552 90.6382 14.8939 89.9671 14.8939C89.4661 14.8939 89.0607 14.7366 88.7556 14.4242C88.4786 14.1404 88.3401 13.7873 88.3401 13.3682C88.3401 12.7346 88.6104 12.2517 89.1542 11.9173C89.6969 11.5829 90.4603 11.419 91.4432 11.4267V11.3299C91.4432 10.6468 91.0761 10.3058 90.3409 10.3058C89.8174 10.3058 89.3557 10.4345 88.9572 10.6897L88.7173 9.93293C89.2105 9.63483 89.8196 9.48523 90.538 9.48523C91.9251 9.48523 92.6209 10.2002 92.6209 11.6302V13.5398C92.6209 14.0579 92.6468 14.4704 92.6975 14.7762ZM91.4725 12.9942V12.1945C90.1709 12.1725 89.5201 12.5212 89.5201 13.2395C89.5201 13.5101 89.5944 13.7125 89.7464 13.8478C89.8984 13.9831 90.0921 14.0502 90.3229 14.0502C90.5819 14.0502 90.8239 13.9699 91.0446 13.8104C91.2664 13.6498 91.4027 13.4463 91.4533 13.1966C91.4657 13.1405 91.4725 13.0723 91.4725 12.9942Z" fill="white"/>
<path d="M99.4024 14.7762H98.3552L98.3001 13.9435H98.2674C97.933 14.5771 97.3633 14.8939 96.5628 14.8939C95.9232 14.8939 95.3907 14.6486 94.9685 14.158C94.5462 13.6674 94.3357 13.0305 94.3357 12.2484C94.3357 11.4091 94.5643 10.7293 95.0236 10.2101C95.4684 9.72615 96.0133 9.48415 96.6618 9.48415C97.3746 9.48415 97.8733 9.71845 98.1571 10.1881H98.1796V7.21155H99.3607V13.3792C99.3607 13.8841 99.3742 14.3494 99.4024 14.7762ZM98.1796 12.5894V11.7248C98.1796 11.5752 98.1683 11.4542 98.1469 11.3618C98.0805 11.0846 97.9375 10.8514 97.7202 10.6633C97.5007 10.4752 97.2361 10.3806 96.9309 10.3806C96.4907 10.3806 96.1462 10.5511 95.8928 10.8932C95.6418 11.2353 95.5145 11.672 95.5145 12.2055C95.5145 12.7181 95.635 13.1339 95.8771 13.454C96.1327 13.795 96.4772 13.9655 96.9084 13.9655C97.2957 13.9655 97.6054 13.8236 97.8407 13.5387C98.0681 13.2758 98.1796 12.959 98.1796 12.5894Z" fill="white"/>
<path d="M109.494 12.1406C109.494 12.9381 109.261 13.5915 108.795 14.1041C108.306 14.631 107.66 14.8939 106.85 14.8939C106.072 14.8939 105.452 14.642 104.988 14.136C104.526 13.6311 104.296 12.9942 104.296 12.2264C104.296 11.4234 104.533 10.7645 105.011 10.253C105.488 9.74153 106.13 9.48523 106.939 9.48523C107.717 9.48523 108.344 9.73713 108.817 10.242C109.268 10.7326 109.494 11.3662 109.494 12.1406ZM108.271 12.178C108.271 11.6995 108.165 11.2892 107.955 10.9471C107.706 10.5335 107.355 10.3267 106.895 10.3267C106.423 10.3267 106.062 10.5335 105.813 10.9471C105.602 11.2892 105.497 11.7061 105.497 12.1989C105.497 12.6774 105.603 13.0877 105.813 13.4298C106.069 13.8434 106.425 14.0502 106.884 14.0502C107.335 14.0502 107.689 13.8401 107.944 13.4188C108.161 13.0701 108.271 12.6565 108.271 12.178Z" fill="white"/>
<path d="M115.839 14.7762H114.66V11.8062C114.66 10.891 114.304 10.4334 113.589 10.4334C113.239 10.4334 112.956 10.5588 112.738 10.8107C112.519 11.0626 112.41 11.3596 112.41 11.6995V14.7751H111.229V11.0725C111.229 10.6171 111.216 10.1232 111.187 9.58863H112.223L112.278 10.3993H112.311C112.45 10.1474 112.654 9.93953 112.922 9.77343C113.243 9.57983 113.6 9.48193 113.993 9.48193C114.487 9.48193 114.9 9.63813 115.227 9.95163C115.636 10.3355 115.839 10.9086 115.839 11.6698V14.7762Z" fill="white"/>
<path d="M123.78 10.4545H122.48V12.9735C122.48 13.6137 122.711 13.9338 123.168 13.9338C123.38 13.9338 123.556 13.9162 123.694 13.8799L123.725 14.7544C123.491 14.8402 123.185 14.8831 122.808 14.8831C122.342 14.8831 121.979 14.7445 121.717 14.4673C121.454 14.1901 121.323 13.7237 121.323 13.0692V10.4545H120.547V9.59096H121.323V8.64056L122.479 8.29956V9.58986H123.779V10.4545H123.78Z" fill="white"/>
<path d="M130.026 14.7762H128.845V11.8282C128.845 10.8987 128.489 10.4334 127.777 10.4334C127.23 10.4334 126.856 10.7029 126.651 11.2419C126.616 11.3552 126.596 11.4938 126.596 11.6566V14.7751H125.417V7.21155H126.596V10.3366H126.618C126.99 9.76795 127.522 9.48415 128.212 9.48415C128.701 9.48415 129.105 9.64035 129.426 9.95385C129.826 10.3443 130.026 10.9251 130.026 11.6929V14.7762Z" fill="white"/>
<path d="M136.47 11.9383C136.47 12.1451 136.454 12.3189 136.426 12.4608H132.887C132.903 12.9734 133.072 13.3639 133.4 13.6345C133.699 13.8765 134.085 13.9975 134.558 13.9975C135.082 13.9975 135.559 13.9161 135.989 13.7522L136.174 14.553C135.671 14.7664 135.078 14.8731 134.393 14.8731C133.571 14.8731 132.923 14.6366 132.455 14.1636C131.984 13.6906 131.751 13.0559 131.751 12.2595C131.751 11.4774 131.968 10.8262 132.406 10.307C132.864 9.75256 133.482 9.47536 134.262 9.47536C135.025 9.47536 135.605 9.75256 135.997 10.307C136.313 10.747 136.47 11.2915 136.47 11.9383ZM135.344 11.6402C135.353 11.2981 135.275 11.0033 135.115 10.7547C134.911 10.4346 134.599 10.274 134.176 10.274C133.791 10.274 133.477 10.4302 133.237 10.7437C133.041 10.9934 132.926 11.2915 132.887 11.6402H135.344Z" fill="white"/>
</svg>