<svg viewBox="0 0 139 41" xmlns:xlink="http://www.w3.org/1999/xlink" xmlns="http://www.w3.org/2000/svg" width="139" height="41" fill="none"><path d="M133.15 40.31H5.121c-2.815 0-5.121-2.25-5.121-5v-30c0-2.748 2.306-5 5.121-5H133.15c2.815 0 5.121 2.252 5.121 5v30c0 2.75-2.306 5-5.121 5Z" fill="#000"/><path d="M133.15 1.112c2.371 0 4.301 1.884 4.301 4.199v30c0 2.315-1.93 4.198-4.301 4.198H5.121c-2.37 0-4.3-1.883-4.3-4.199v-30c0-2.314 1.93-4.198 4.3-4.198H133.15Zm0-.801H5.121C2.306.31 0 2.56 0 5.31v30c0 2.748 2.306 5 5.121 5H133.15c2.815 0 5.121-2.252 5.121-5v-30c0-2.75-2.306-5-5.121-5Z" fill="#A6A6A6"/><path d="M48.566 10.555c0 .835-.257 1.503-.761 2.002-.58.591-1.335.889-2.261.889-.885 0-1.64-.303-2.26-.899-.62-.605-.93-1.348-.93-2.236 0-.889.31-1.631.93-2.231.62-.602 1.375-.904 2.26-.904.44 0 .86.089 1.261.254.4.166.725.39.96.668l-.535.528c-.41-.474-.97-.708-1.686-.708-.645 0-1.205.22-1.68.664-.47.445-.705 1.021-.705 1.729 0 .707.235 1.289.705 1.733a2.398 2.398 0 0 0 1.68.664c.685 0 1.261-.225 1.716-.668.3-.294.47-.7.514-1.217h-2.23v-.722h2.975c.036.156.047.307.047.454Zm4.721-2.505h-2.795v1.9h2.52v.722h-2.52v1.9h2.795v.737h-3.586V7.313h3.586v.737Zm3.33 5.259h-.791v-5.26H54.11v-.736h4.221v.737h-1.715v5.258Zm4.772 0V7.313h.79v5.996h-.79Zm4.292 0h-.784v-5.26h-1.721v-.736h4.226v.737h-1.72v5.258Zm9.711-.772c-.605.606-1.356.909-2.25.909-.9 0-1.65-.303-2.256-.909-.605-.605-.905-1.348-.905-2.226 0-.879.3-1.621.905-2.226.605-.607 1.356-.91 2.255-.91.89 0 1.64.303 2.246.915.61.61.91 1.347.91 2.22 0 .88-.3 1.622-.905 2.227Zm-3.921-.503c.456.45 1.01.674 1.67.674.656 0 1.215-.225 1.666-.674.455-.448.685-1.025.685-1.723 0-.699-.23-1.275-.685-1.724-.45-.449-1.01-.674-1.666-.674-.66 0-1.215.225-1.67.674-.455.449-.685 1.025-.685 1.724 0 .698.23 1.275.685 1.723Zm5.937 1.275V7.313h.96l2.986 4.663h.035l-.035-1.153v-3.51h.79v5.996h-.825l-3.126-4.893h-.034l.034 1.157v3.736h-.785Z" fill="#fff" stroke="#fff" stroke-width=".16" stroke-miterlimit="10"/><path d="M69.787 22.064c-2.406 0-4.371 1.787-4.371 4.253 0 2.447 1.965 4.253 4.37 4.253 2.412 0 4.377-1.806 4.377-4.253 0-2.466-1.965-4.253-4.376-4.253Zm0 6.83c-1.32 0-2.456-1.063-2.456-2.577 0-1.533 1.136-2.578 2.456-2.578s2.46 1.045 2.46 2.578c0 1.514-1.14 2.578-2.46 2.578Zm-9.537-6.83c-2.411 0-4.371 1.787-4.371 4.253 0 2.447 1.96 4.253 4.37 4.253s4.372-1.806 4.372-4.253c0-2.466-1.962-4.253-4.371-4.253Zm0 6.83c-1.321 0-2.46-1.063-2.46-2.577 0-1.533 1.139-2.578 2.46-2.578 1.32 0 2.455 1.045 2.455 2.578 0 1.514-1.135 2.578-2.455 2.578ZM48.9 23.368v1.808h4.421c-.13 1.01-.475 1.752-1.005 2.27-.645.625-1.65 1.319-3.416 1.319-2.72 0-4.85-2.144-4.85-4.8 0-2.657 2.13-4.8 4.85-4.8 1.471 0 2.542.56 3.332 1.288l1.304-1.273c-1.105-1.03-2.574-1.822-4.636-1.822-3.73 0-6.866 2.964-6.866 6.607 0 3.642 3.136 6.606 6.866 6.606 2.017 0 3.531-.645 4.722-1.855 1.22-1.191 1.6-2.866 1.6-4.219a5.9 5.9 0 0 0-.1-1.129H48.9Zm46.406 1.402c-.36-.952-1.47-2.705-3.731-2.705-2.24 0-4.106 1.723-4.106 4.253 0 2.383 1.846 4.253 4.321 4.253a4.342 4.342 0 0 0 3.63-1.885l-1.484-.966c-.496.707-1.17 1.176-2.146 1.176-.97 0-1.664-.434-2.11-1.289l5.827-2.354-.201-.483Zm-5.94 1.416a2.359 2.359 0 0 1 2.274-2.48c.76 0 1.406.371 1.621.902l-3.896 1.578ZM84.63 30.31h1.916v-12.5H84.63v12.5Zm-3.136-7.3h-.064c-.43-.497-1.251-.947-2.29-.947-2.182 0-4.177 1.87-4.177 4.267 0 2.384 1.995 4.239 4.176 4.239 1.04 0 1.86-.454 2.29-.966h.065v.61c0 1.626-.89 2.5-2.325 2.5-1.17 0-1.897-.825-2.196-1.52l-1.666.68c.48 1.127 1.752 2.515 3.862 2.515 2.245 0 4.14-1.29 4.14-4.43v-7.637h-1.815v.69Zm-2.19 5.884c-1.32 0-2.426-1.079-2.426-2.564 0-1.499 1.105-2.592 2.425-2.592 1.3 0 2.326 1.093 2.326 2.592 0 1.485-1.025 2.564-2.326 2.564Zm24.97-11.084h-4.581v12.5h1.91v-4.736h2.671c2.121 0 4.202-1.499 4.202-3.883 0-2.382-2.086-3.88-4.202-3.88Zm.05 6.025h-2.721V19.55h2.721a2.195 2.195 0 0 1 2.24 2.142c0 .968-.814 2.144-2.24 2.144Zm11.808-1.796c-1.38 0-2.816.595-3.406 1.914l1.695.693c.365-.693 1.036-.918 1.745-.918.991 0 1.996.58 2.012 1.607v.131c-.346-.195-1.086-.483-1.996-.483-1.826 0-3.686.98-3.686 2.812 0 1.675 1.495 2.754 3.176 2.754 1.286 0 1.995-.566 2.44-1.225h.066v.966h1.845v-4.795c0-2.216-1.695-3.456-3.891-3.456Zm-.231 6.85c-.624 0-1.495-.303-1.495-1.059 0-.967 1.086-1.339 2.025-1.339.842 0 1.236.182 1.747.42-.15 1.158-1.17 1.978-2.277 1.978Zm10.843-6.576-2.196 5.418h-.065l-2.27-5.418h-2.06l3.411 7.572-1.946 4.214h1.996l5.255-11.786h-2.125Zm-17.218 7.997h1.915v-12.5h-1.915v12.5Z" fill="#fff"/><path d="M10.688 7.849c-.301.307-.475.786-.475 1.406V31.37c0 .62.174 1.099.475 1.406l.074.068 12.693-12.388v-.292L10.762 7.776l-.074.073Z" fill="url(#a)"/><path d="m27.681 24.588-4.226-4.131v-.293l4.231-4.131.095.054 5.011 2.783c1.43.79 1.43 2.09 0 2.885l-5.01 2.78-.1.053Z" fill="url(#b)"/><path d="m27.779 24.534-4.326-4.224-12.768 12.466c.476.488 1.25.547 2.13.06l14.964-8.302Z" fill="url(#c)"/><path d="M27.779 16.087 12.816 7.786c-.88-.483-1.655-.424-2.13.063l12.767 12.462 4.326-4.224Z" fill="url(#d)"/><defs><linearGradient id="a" x1="22.328" y1="31.6" x2="5.55" y2="14.416" gradientUnits="userSpaceOnUse"><stop stop-color="#00A0FF"/><stop offset=".007" stop-color="#00A1FF"/><stop offset=".26" stop-color="#00BEFF"/><stop offset=".512" stop-color="#00D2FF"/><stop offset=".76" stop-color="#00DFFF"/><stop offset="1" stop-color="#00E3FF"/></linearGradient><linearGradient id="b" x1="34.654" y1="20.309" x2="9.871" y2="20.309" gradientUnits="userSpaceOnUse"><stop stop-color="#FFE000"/><stop offset=".409" stop-color="#FFBD00"/><stop offset=".775" stop-color="orange"/><stop offset="1" stop-color="#FF9C00"/></linearGradient><linearGradient id="c" x1="25.426" y1="18.014" x2="2.675" y2="-5.289" gradientUnits="userSpaceOnUse"><stop stop-color="#FF3A44"/><stop offset="1" stop-color="#C31162"/></linearGradient><linearGradient id="d" x1="7.472" y1="40.134" x2="17.631" y2="29.729" gradientUnits="userSpaceOnUse"><stop stop-color="#32A071"/><stop offset=".069" stop-color="#2DA771"/><stop offset=".476" stop-color="#15CF74"/><stop offset=".801" stop-color="#06E775"/><stop offset="1" stop-color="#00F076"/></linearGradient></defs></svg>